<svg width="500" height="350" xmlns="http://www.w3.org/2000/svg" style="background:#f9f9f9; font-family:sans-serif">
  <rect x="10" y="10" width="480" height="330" fill="#fff" stroke="#ccc" />
  
  <!-- Header -->
  <rect x="20" y="20" width="200" height="40" fill="#ff4500" />
  <text x="120" y="45" font-size="20" fill="#fff" text-anchor="middle">Diet Reddit</text>
  
  <rect x="240" y="25" width="200" height="30" fill="#eee" stroke="#ccc" />
  <text x="250" y="45" font-size="14" fill="#999" >Search Bar</text>
  
  <rect x="450" y="25" width="40" height="30" fill="#0079d3" rx="4" ry="4" />
  <text x="470" y="45" font-size="14" fill="#fff" text-anchor="middle">Go</text>
  
  <!-- Sidebar - Subreddits -->
  <rect x="20" y="80" width="120" height="240" fill="#fafafa" stroke="#ccc" />
  <text x="80" y="100" font-size="16" fill="#333" font-weight="bold" text-anchor="middle">Subreddits</text>
  <text x="40" y="130" font-size="14" fill="#0079d3">r/popular</text>
  <text x="40" y="155" font-size="14" fill="#0079d3">r/javascript</text>
  <text x="40" y="180" font-size="14" fill="#0079d3">r/reactjs</text>
  <text x="40" y="205" font-size="14" fill="#0079d3">r/webdev</text>
  
  <!-- Posts Area -->
  <rect x="160" y="80" width="330" height="240" fill="#f8f8f8" stroke="#ccc" />
  
  <!-- Post card 1 -->
  <rect x="170" y="90" width="310" height="80" fill="#fff" stroke="#ddd" />
  <text x="180" y="110" font-size="14" fill="#555">Author • 2 hours ago</text>
  <text x="180" y="135" font-size="16" fill="#222" font-weight="bold">Post Title Example 1</text>
  <rect x="180" y="145" width="100" height="50" fill="#ddd" />
  
  <!-- Post card 2 -->
  <rect x="170" y="180" width="310" height="80" fill="#fff" stroke="#ddd" />
  <text x="180" y="200" font-size="14" fill="#555">Author • 4 hours ago</text>
  <text x="180" y="225" font-size="16" fill="#222" font-weight="bold">Post Title Example 2</text>
  <rect x="180" y="235" width="100" height="50" fill="#ddd" />
</svg>
